<?xml version="1.0" encoding="UTF-8" standalone="no" ?>
<!DOCTYPE svg PUBLIC "-//W3C//DTD SVG 1.1//EN" "http://www.w3.org/Graphics/SVG/1.1/DTD/svg11.dtd">
<svg xmlns="http://www.w3.org/2000/svg" xmlns:xlink="http://www.w3.org/1999/xlink" version="1.1" width="1280" height="1024" viewBox="0 0 1280 1024" xml:space="preserve">
<desc>Created with Fabric.js 5.3.0</desc>
<defs>
</defs>
<g transform="matrix(1 0 0 1 640 512)" id="background-logo"  >
<rect style="stroke: none; stroke-width: 0; stroke-dasharray: none; stroke-linecap: butt; stroke-dashoffset: 0; stroke-linejoin: miter; stroke-miterlimit: 4; fill: rgb(10,11,16); fill-rule: nonzero; opacity: 1;"  paint-order="stroke"  x="-640" y="-512" rx="0" ry="0" width="1280" height="1024" />
</g>
<g transform="matrix(1.9211538461538453 0 0 1.9211538461538453 628.3980939817131 495.6873702178958)" id="text-logo"  >
<g style=""  paint-order="stroke"   >
		<g transform="matrix(1 0 0 1 0 0)" id="text-logo-path-0"  >
<path style="stroke: rgb(255,255,255); stroke-width: 0; stroke-dasharray: none; stroke-linecap: butt; stroke-dashoffset: 0; stroke-linejoin: miter; stroke-miterlimit: 4; fill: rgb(0,229,255); fill-rule: nonzero; opacity: 1;"  paint-order="stroke"  transform=" translate(-101.75, 171.25)" d="M 102 5 L 102 5 Q 74 5 51.75 -8.25 Q 29.5 -21.5 16.75 -44.75 Q 4 -68 4 -97 L 4 -97 L 4 -120 Q 4 -122 6 -122 L 6 -122 L 62.5 -122 Q 64.5 -122 64.5 -119.5 L 64.5 -119.5 L 64.5 -97 Q 64.5 -78.5 75 -67 Q 85.5 -55.5 102 -55.5 L 102 -55.5 Q 117 -55.5 128 -68 Q 139 -80.5 139 -97 L 139 -97 L 139 -345.5 Q 139 -347.5 141 -347.5 L 141 -347.5 L 197 -347.5 Q 199 -347.5 199 -345 L 199 -345 L 199.5 -97 Q 199.5 -69.5 186.25 -46.25 Q 173 -23 151 -9 Q 129 5 102 5 Z" stroke-linecap="round" />
</g>
</g>
</g>
<g transform="matrix(1.9211538461538453 0 0 1.9211538461538453 238.53994012258534 524.9612638095346)" id="tagline-68315c5e-1f1e-44c7-b319-6d264416914d-logo"  >
<g style=""  paint-order="stroke"   >
		<g transform="matrix(1 0 0 1 0 0)" id="tagline-68315c5e-1f1e-44c7-b319-6d264416914d-logo-path-0"  >
<path style="stroke: rgb(255,255,255); stroke-width: 0; stroke-dasharray: none; stroke-linecap: butt; stroke-dashoffset: 0; stroke-linejoin: miter; stroke-miterlimit: 4; fill: rgb(0,229,255); fill-rule: nonzero; opacity: 1;"  paint-order="stroke"  transform=" translate(-91.57500000000002, 191.4)" d="M 160.05 0 L 22.55 0 Q 20.35 0 20.35 -2.2 L 20.35 -2.2 L 20.35 -380.6 Q 20.35 -382.8 22.55 -382.8 L 22.55 -382.8 L 160.05 -382.8 Q 162.8 -382.8 162.8 -380.6 L 162.8 -380.6 L 162.8 -320.65 Q 162.8 -318.45 160.05 -318.45 L 160.05 -318.45 L 84.15 -318.45 L 84.15 -64.35 L 160.05 -64.35 Q 162.8 -64.35 162.8 -62.15 L 162.8 -62.15 L 162.8 -2.2 Q 162.8 0 160.05 0 L 160.05 0 Z" stroke-linecap="round" />
</g>
</g>
</g>
<g transform="matrix(1.9211538461538453 0 0 1.9211538461538453 1014.8968413912835 522.5194897682297)" id="tagline-df3aec8a-1004-433d-bf6f-33c1b21e527a-logo"  >
<g style=""  paint-order="stroke"   >
		<g transform="matrix(1 0 0 1 0 0)" id="tagline-df3aec8a-1004-433d-bf6f-33c1b21e527a-logo-path-0"  >
<path style="stroke: rgb(255,255,255); stroke-width: 0; stroke-dasharray: none; stroke-linecap: butt; stroke-dashoffset: 0; stroke-linejoin: miter; stroke-miterlimit: 4; fill: rgb(0,229,255); fill-rule: nonzero; opacity: 1;"  paint-order="stroke"  transform=" translate(-92.125, 191.4)" d="M 161.15 0 L 23.65 0 Q 20.9 0 20.9 -2.2 L 20.9 -2.2 L 20.9 -62.15 Q 20.9 -64.35 23.65 -64.35 L 23.65 -64.35 L 99.55 -64.35 L 99.55 -318.45 L 23.65 -318.45 Q 20.9 -318.45 20.9 -320.65 L 20.9 -320.65 L 20.9 -380.6 Q 20.9 -382.8 23.65 -382.8 L 23.65 -382.8 L 161.15 -382.8 Q 163.35 -382.8 163.35 -380.6 L 163.35 -380.6 L 163.35 -2.2 Q 163.35 0 161.15 0 L 161.15 0 Z" stroke-linecap="round" />
</g>
</g>
</g>
</svg>